<?xml version="1.0" encoding="utf-8"?>
<!-- Generator: Adobe Illustrator 17.0.1, SVG Export Plug-In . SVG Version: 6.00 Build 0)  -->
<!DOCTYPE svg PUBLIC "-//W3C//DTD SVG 1.1//EN" "http://www.w3.org/Graphics/SVG/1.1/DTD/svg11.dtd">
<svg version="1.1" id="Layer_1" xmlns="http://www.w3.org/2000/svg" xmlns:xlink="http://www.w3.org/1999/xlink" x="0px" y="0px"
	 width="360px" height="40px" viewBox="0 0 360 40" enable-background="new 0 0 360 40" xml:space="preserve">
<linearGradient id="SVGID_1_" gradientUnits="userSpaceOnUse" x1="180" y1="2.5" x2="180" y2="22.5062">
	<stop  offset="0" style="stop-color:#FFDE17"/>
	<stop  offset="1" style="stop-color:#FFF97C"/>
</linearGradient>
<rect fill="url(#SVGID_1_)" width="360" height="40"/>
<rect y="20" opacity="0.5" fill="#FFB500" width="360" height="20"/>
<linearGradient id="SVGID_2_" gradientUnits="userSpaceOnUse" x1="21.75" y1="41" x2="21.75" y2="-0.1491">
	<stop  offset="0" style="stop-color:#4541A2"/>
	<stop  offset="1" style="stop-color:#3D38FF"/>
</linearGradient>
<rect fill="url(#SVGID_2_)" width="43.5" height="40"/>
<polygon fill="#231F20" points="42.5,0 42.5,39 0,39 0,40 43.5,40 43.5,0 "/>
<rect fill="#726AF5" width="42.5" height="0.875"/>
<g>
	<g>
		<image overflow="visible" opacity="0.66" width="25" height="20" xlink:href="A3E4145F.png"  transform="matrix(1 0 0 1 6 3.5)">
		</image>
		<g>
			<g>
				<linearGradient id="SVGID_3_" gradientUnits="userSpaceOnUse" x1="9.221" y1="12.5" x2="25.625" y2="12.5">
					<stop  offset="0" style="stop-color:#FFD100"/>
					<stop  offset="1" style="stop-color:#FFD800"/>
				</linearGradient>
				<path fill="url(#SVGID_3_)" d="M17.099,9.5c-0.275,0-0.5-0.225-0.5-0.5V6.342c0-0.275-0.169-0.352-0.376-0.171l-6.847,5.999
					c-0.207,0.181-0.207,0.478,0,0.659l6.847,5.999c0.207,0.181,0.376,0.104,0.376-0.171V16c0-0.275,0.225-0.5,0.5-0.5h8.026
					c0.275,0,0.5-0.225,0.5-0.5v-5c0-0.275-0.225-0.5-0.5-0.5H17.099z"/>
				<path fill="none" stroke="#231F20" stroke-miterlimit="10" d="M17.099,9.5c-0.275,0-0.5-0.225-0.5-0.5V6.342
					c0-0.275-0.169-0.352-0.376-0.171l-6.847,5.999c-0.207,0.181-0.207,0.478,0,0.659l6.847,5.999
					c0.207,0.181,0.376,0.104,0.376-0.171V16c0-0.275,0.225-0.5,0.5-0.5h8.026c0.275,0,0.5-0.225,0.5-0.5v-5
					c0-0.275-0.225-0.5-0.5-0.5H17.099z"/>
			</g>
			<defs>
				<filter id="Adobe_OpacityMaskFilter" filterUnits="userSpaceOnUse" x="8.721" y="5.574" width="17.404" height="13.853">
					
						<feColorMatrix  type="matrix" values="-1 0 0 0 1  0 -1 0 0 1  0 0 -1 0 1  0 0 0 1 0" color-interpolation-filters="sRGB" result="source"/>
				</filter>
			</defs>
			<mask maskUnits="userSpaceOnUse" x="8.721" y="5.574" width="17.404" height="13.853" id="SVGID_4_">
				<g filter="url(#Adobe_OpacityMaskFilter)">
					<image overflow="visible" width="23" height="18" xlink:href="A3E4145D.jpg"  transform="matrix(1 0 0 1 6 3.5)">
					</image>
				</g>
			</mask>
			<g opacity="0.99" mask="url(#SVGID_4_)">
				<path fill="#FFEC00" d="M17.099,9.5c-0.275,0-0.5-0.225-0.5-0.5V6.342c0-0.275-0.169-0.352-0.376-0.171l-6.847,5.999
					c-0.207,0.181-0.207,0.478,0,0.659l6.847,5.999c0.207,0.181,0.376,0.104,0.376-0.171V16c0-0.275,0.225-0.5,0.5-0.5h8.026
					c0.275,0,0.5-0.225,0.5-0.5v-5c0-0.275-0.225-0.5-0.5-0.5H17.099z"/>
				<path fill="none" stroke="#FFEC00" stroke-miterlimit="10" d="M17.099,9.5c-0.275,0-0.5-0.225-0.5-0.5V6.342
					c0-0.275-0.169-0.352-0.376-0.171l-6.847,5.999c-0.207,0.181-0.207,0.478,0,0.659l6.847,5.999
					c0.207,0.181,0.376,0.104,0.376-0.171V16c0-0.275,0.225-0.5,0.5-0.5h8.026c0.275,0,0.5-0.225,0.5-0.5v-5
					c0-0.275-0.225-0.5-0.5-0.5H17.099z"/>
			</g>
		</g>
	</g>
	<g>
		<path fill="none" stroke="#000000" stroke-miterlimit="10" d="M17.099,9.5c-0.275,0-0.5-0.225-0.5-0.5V6.342
			c0-0.275-0.169-0.352-0.376-0.171l-6.847,5.999c-0.207,0.181-0.207,0.478,0,0.659l6.847,5.999
			c0.207,0.181,0.376,0.104,0.376-0.171V16c0-0.275,0.225-0.5,0.5-0.5h8.026c0.275,0,0.5-0.225,0.5-0.5v-5
			c0-0.275-0.225-0.5-0.5-0.5H17.099z"/>
	</g>
</g>
<g>
	<g>
		
			<image overflow="visible" opacity="0.66" width="24" height="20" xlink:href="A3E41463.png"  transform="matrix(1 0 0 1 13 16.5)">
		</image>
		<g>
			<g>
				
					<linearGradient id="SVGID_5_" gradientUnits="userSpaceOnUse" x1="8.221" y1="25.5" x2="24.625" y2="25.5" gradientTransform="matrix(-1 0 0 1 40.625 0)">
					<stop  offset="0" style="stop-color:#FFD100"/>
					<stop  offset="1" style="stop-color:#FFB500"/>
				</linearGradient>
				<path fill="url(#SVGID_5_)" d="M24.526,22.5c0.275,0,0.5-0.225,0.5-0.5v-2.658c0-0.275,0.169-0.352,0.376-0.171l6.847,5.999
					c0.207,0.181,0.207,0.478,0,0.659l-6.847,5.999c-0.207,0.181-0.376,0.104-0.376-0.171V29c0-0.275-0.225-0.5-0.5-0.5H16.5
					c-0.275,0-0.5-0.225-0.5-0.5v-5c0-0.275,0.225-0.5,0.5-0.5H24.526z"/>
				<linearGradient id="SVGID_6_" gradientUnits="userSpaceOnUse" x1="15.5" y1="25.5" x2="32.904" y2="25.5">
					<stop  offset="0" style="stop-color:#FFD100"/>
					<stop  offset="1" style="stop-color:#FFD800"/>
				</linearGradient>
				<path fill="none" stroke="url(#SVGID_6_)" stroke-miterlimit="10" d="M24.526,22.5c0.275,0,0.5-0.225,0.5-0.5v-2.658
					c0-0.275,0.169-0.352,0.376-0.171l6.847,5.999c0.207,0.181,0.207,0.478,0,0.659l-6.847,5.999
					c-0.207,0.181-0.376,0.104-0.376-0.171V29c0-0.275-0.225-0.5-0.5-0.5H16.5c-0.275,0-0.5-0.225-0.5-0.5v-5
					c0-0.275,0.225-0.5,0.5-0.5H24.526z"/>
			</g>
			<defs>
				<filter id="Adobe_OpacityMaskFilter_1_" filterUnits="userSpaceOnUse" x="15.5" y="18.574" width="17.404" height="13.853">
					
						<feColorMatrix  type="matrix" values="-1 0 0 0 1  0 -1 0 0 1  0 0 -1 0 1  0 0 0 1 0" color-interpolation-filters="sRGB" result="source"/>
				</filter>
			</defs>
			<mask maskUnits="userSpaceOnUse" x="15.5" y="18.574" width="17.404" height="13.853" id="SVGID_7_">
				<g filter="url(#Adobe_OpacityMaskFilter_1_)">
					<image overflow="visible" width="22" height="18" xlink:href="A3E41465.jpg"  transform="matrix(1 0 0 1 13 16.5)">
					</image>
				</g>
			</mask>
			<g opacity="0.99" mask="url(#SVGID_7_)">
				<path fill="#FFEC00" d="M24.526,22.5c0.275,0,0.5-0.225,0.5-0.5v-2.658c0-0.275,0.169-0.352,0.376-0.171l6.847,5.999
					c0.207,0.181,0.207,0.478,0,0.659l-6.847,5.999c-0.207,0.181-0.376,0.104-0.376-0.171V29c0-0.275-0.225-0.5-0.5-0.5H16.5
					c-0.275,0-0.5-0.225-0.5-0.5v-5c0-0.275,0.225-0.5,0.5-0.5H24.526z"/>
				<path fill="none" stroke="#FFEC00" stroke-miterlimit="10" d="M24.526,22.5c0.275,0,0.5-0.225,0.5-0.5v-2.658
					c0-0.275,0.169-0.352,0.376-0.171l6.847,5.999c0.207,0.181,0.207,0.478,0,0.659l-6.847,5.999
					c-0.207,0.181-0.376,0.104-0.376-0.171V29c0-0.275-0.225-0.5-0.5-0.5H16.5c-0.275,0-0.5-0.225-0.5-0.5v-5
					c0-0.275,0.225-0.5,0.5-0.5H24.526z"/>
			</g>
		</g>
	</g>
	<g>
		<path fill="none" stroke="#000000" stroke-miterlimit="10" d="M24.526,22.5c0.275,0,0.5-0.225,0.5-0.5v-2.658
			c0-0.275,0.169-0.352,0.376-0.171l6.847,5.999c0.207,0.181,0.207,0.478,0,0.659l-6.847,5.999
			c-0.207,0.181-0.376,0.104-0.376-0.171V29c0-0.275-0.225-0.5-0.5-0.5H16.5c-0.275,0-0.5-0.225-0.5-0.5v-5
			c0-0.275,0.225-0.5,0.5-0.5H24.526z"/>
	</g>
</g>
</svg>
