<?xml version="1.0" encoding="utf-8"?>
<!-- Generator: Adobe Illustrator 17.0.1, SVG Export Plug-In . SVG Version: 6.00 Build 0)  -->
<!DOCTYPE svg PUBLIC "-//W3C//DTD SVG 1.1//EN" "http://www.w3.org/Graphics/SVG/1.1/DTD/svg11.dtd">
<svg version="1.1" id="Layer_1" xmlns="http://www.w3.org/2000/svg" xmlns:xlink="http://www.w3.org/1999/xlink" x="0px" y="0px"
	 width="360px" height="40px" viewBox="0 0 360 40" enable-background="new 0 0 360 40" xml:space="preserve">
<linearGradient id="SVGID_1_" gradientUnits="userSpaceOnUse" x1="180" y1="3" x2="180" y2="23.0062">
	<stop  offset="0" style="stop-color:#FFD100"/>
	<stop  offset="1" style="stop-color:#FFD800"/>
</linearGradient>
<rect y="0.5" fill="url(#SVGID_1_)" width="360" height="40"/>
<rect y="20.5" fill="#FFB500" width="360" height="20"/>
<linearGradient id="SVGID_2_" gradientUnits="userSpaceOnUse" x1="21.75" y1="41.5" x2="21.75" y2="0.3509">
	<stop  offset="0" style="stop-color:#2E208E"/>
	<stop  offset="1" style="stop-color:#3D38BD"/>
</linearGradient>
<rect y="0.5" fill="url(#SVGID_2_)" width="43.5" height="40"/>
<polygon fill="#231F20" points="42.5,0.5 42.5,39.5 0,39.5 0,40.5 43.5,40.5 43.5,0.5 "/>
<rect y="0.5" fill="#726AF5" width="42.5" height="0.875"/>
<g>
	<image overflow="visible" opacity="0.66" width="25" height="20" xlink:href="54EDD0BC.png"  transform="matrix(1 0 0 1 9 4)">
	</image>
	<g>
		<g>
			<linearGradient id="SVGID_3_" gradientUnits="userSpaceOnUse" x1="12.221" y1="13" x2="28.625" y2="13">
				<stop  offset="0" style="stop-color:#FFD100"/>
				<stop  offset="1" style="stop-color:#FFD800"/>
			</linearGradient>
			<path fill="url(#SVGID_3_)" d="M20.099,10c-0.275,0-0.5-0.225-0.5-0.5V6.842c0-0.275-0.169-0.352-0.376-0.171l-6.847,5.999
				c-0.207,0.181-0.207,0.478,0,0.659l6.847,5.999c0.207,0.181,0.376,0.104,0.376-0.171V16.5c0-0.275,0.225-0.5,0.5-0.5h8.026
				c0.275,0,0.5-0.225,0.5-0.5v-5c0-0.275-0.225-0.5-0.5-0.5H20.099z"/>
			<path fill="none" stroke="#231F20" stroke-miterlimit="10" d="M20.099,10c-0.275,0-0.5-0.225-0.5-0.5V6.842
				c0-0.275-0.169-0.352-0.376-0.171l-6.847,5.999c-0.207,0.181-0.207,0.478,0,0.659l6.847,5.999
				c0.207,0.181,0.376,0.104,0.376-0.171V16.5c0-0.275,0.225-0.5,0.5-0.5h8.026c0.275,0,0.5-0.225,0.5-0.5v-5
				c0-0.275-0.225-0.5-0.5-0.5H20.099z"/>
		</g>
		<defs>
			<filter id="Adobe_OpacityMaskFilter" filterUnits="userSpaceOnUse" x="11.721" y="6.074" width="17.404" height="13.853">
				
					<feColorMatrix  type="matrix" values="-1 0 0 0 1  0 -1 0 0 1  0 0 -1 0 1  0 0 0 1 0" color-interpolation-filters="sRGB" result="source"/>
			</filter>
		</defs>
		<mask maskUnits="userSpaceOnUse" x="11.721" y="6.074" width="17.404" height="13.853" id="SVGID_4_">
			<g filter="url(#Adobe_OpacityMaskFilter)">
				<image overflow="visible" width="23" height="18" xlink:href="54EDD0BC.jpg"  transform="matrix(1 0 0 1 9 4)">
				</image>
			</g>
		</mask>
		<g opacity="0.99" mask="url(#SVGID_4_)">
			<path fill="#FFEC00" d="M20.099,10c-0.275,0-0.5-0.225-0.5-0.5V6.842c0-0.275-0.169-0.352-0.376-0.171l-6.847,5.999
				c-0.207,0.181-0.207,0.478,0,0.659l6.847,5.999c0.207,0.181,0.376,0.104,0.376-0.171V16.5c0-0.275,0.225-0.5,0.5-0.5h8.026
				c0.275,0,0.5-0.225,0.5-0.5v-5c0-0.275-0.225-0.5-0.5-0.5H20.099z"/>
			<path fill="none" stroke="#FFEC00" stroke-miterlimit="10" d="M20.099,10c-0.275,0-0.5-0.225-0.5-0.5V6.842
				c0-0.275-0.169-0.352-0.376-0.171l-6.847,5.999c-0.207,0.181-0.207,0.478,0,0.659l6.847,5.999
				c0.207,0.181,0.376,0.104,0.376-0.171V16.5c0-0.275,0.225-0.5,0.5-0.5h8.026c0.275,0,0.5-0.225,0.5-0.5v-5
				c0-0.275-0.225-0.5-0.5-0.5H20.099z"/>
		</g>
	</g>
</g>
<g>
	<path fill="none" stroke="#000000" stroke-miterlimit="10" d="M20.099,10c-0.275,0-0.5-0.225-0.5-0.5V6.842
		c0-0.275-0.169-0.352-0.376-0.171l-6.847,5.999c-0.207,0.181-0.207,0.478,0,0.659l6.847,5.999c0.207,0.181,0.376,0.104,0.376-0.171
		V16.5c0-0.275,0.225-0.5,0.5-0.5h8.026c0.275,0,0.5-0.225,0.5-0.5v-5c0-0.275-0.225-0.5-0.5-0.5H20.099z"/>
</g>
<g>
	<image overflow="visible" opacity="0.66" width="24" height="20" xlink:href="54EDD0BB.png"  transform="matrix(1 0 0 1 10 17)">
	</image>
	<g>
		<g>
			
				<linearGradient id="SVGID_5_" gradientUnits="userSpaceOnUse" x1="11.221" y1="26" x2="27.625" y2="26" gradientTransform="matrix(-1 0 0 1 40.625 0)">
				<stop  offset="0" style="stop-color:#FFD100"/>
				<stop  offset="1" style="stop-color:#FFB500"/>
			</linearGradient>
			<path fill="url(#SVGID_5_)" d="M21.526,23c0.275,0,0.5-0.225,0.5-0.5v-2.658c0-0.275,0.169-0.352,0.376-0.171l6.847,5.999
				c0.207,0.181,0.207,0.478,0,0.659l-6.847,5.999c-0.207,0.181-0.376,0.104-0.376-0.171V29.5c0-0.275-0.225-0.5-0.5-0.5H13.5
				c-0.275,0-0.5-0.225-0.5-0.5v-5c0-0.275,0.225-0.5,0.5-0.5H21.526z"/>
			<linearGradient id="SVGID_6_" gradientUnits="userSpaceOnUse" x1="12.5" y1="26" x2="29.904" y2="26">
				<stop  offset="0" style="stop-color:#FFD100"/>
				<stop  offset="1" style="stop-color:#FFD800"/>
			</linearGradient>
			<path fill="none" stroke="url(#SVGID_6_)" stroke-miterlimit="10" d="M21.526,23c0.275,0,0.5-0.225,0.5-0.5v-2.658
				c0-0.275,0.169-0.352,0.376-0.171l6.847,5.999c0.207,0.181,0.207,0.478,0,0.659l-6.847,5.999
				c-0.207,0.181-0.376,0.104-0.376-0.171V29.5c0-0.275-0.225-0.5-0.5-0.5H13.5c-0.275,0-0.5-0.225-0.5-0.5v-5
				c0-0.275,0.225-0.5,0.5-0.5H21.526z"/>
		</g>
		<defs>
			<filter id="Adobe_OpacityMaskFilter_1_" filterUnits="userSpaceOnUse" x="12.5" y="19.074" width="17.404" height="13.853">
				
					<feColorMatrix  type="matrix" values="-1 0 0 0 1  0 -1 0 0 1  0 0 -1 0 1  0 0 0 1 0" color-interpolation-filters="sRGB" result="source"/>
			</filter>
		</defs>
		<mask maskUnits="userSpaceOnUse" x="12.5" y="19.074" width="17.404" height="13.853" id="SVGID_7_">
			<g filter="url(#Adobe_OpacityMaskFilter_1_)">
				<image overflow="visible" width="22" height="18" xlink:href="54EDD0C4.jpg"  transform="matrix(1 0 0 1 10 17)">
				</image>
			</g>
		</mask>
		<g opacity="0.99" mask="url(#SVGID_7_)">
			<path fill="#FFEC00" d="M21.526,23c0.275,0,0.5-0.225,0.5-0.5v-2.658c0-0.275,0.169-0.352,0.376-0.171l6.847,5.999
				c0.207,0.181,0.207,0.478,0,0.659l-6.847,5.999c-0.207,0.181-0.376,0.104-0.376-0.171V29.5c0-0.275-0.225-0.5-0.5-0.5H13.5
				c-0.275,0-0.5-0.225-0.5-0.5v-5c0-0.275,0.225-0.5,0.5-0.5H21.526z"/>
			<path fill="none" stroke="#FFEC00" stroke-miterlimit="10" d="M21.526,23c0.275,0,0.5-0.225,0.5-0.5v-2.658
				c0-0.275,0.169-0.352,0.376-0.171l6.847,5.999c0.207,0.181,0.207,0.478,0,0.659l-6.847,5.999
				c-0.207,0.181-0.376,0.104-0.376-0.171V29.5c0-0.275-0.225-0.5-0.5-0.5H13.5c-0.275,0-0.5-0.225-0.5-0.5v-5
				c0-0.275,0.225-0.5,0.5-0.5H21.526z"/>
		</g>
	</g>
</g>
<g>
	<path fill="none" stroke="#000000" stroke-miterlimit="10" d="M21.526,23c0.275,0,0.5-0.225,0.5-0.5v-2.658
		c0-0.275,0.169-0.352,0.376-0.171l6.847,5.999c0.207,0.181,0.207,0.478,0,0.659l-6.847,5.999c-0.207,0.181-0.376,0.104-0.376-0.171
		V29.5c0-0.275-0.225-0.5-0.5-0.5H13.5c-0.275,0-0.5-0.225-0.5-0.5v-5c0-0.275,0.225-0.5,0.5-0.5H21.526z"/>
</g>
</svg>
